<?xml version="1.0" standalone="no"?>
<!DOCTYPE svg PUBLIC "-//W3C//DTD SVG 20010904//EN"
 "http://www.w3.org/TR/2001/REC-SVG-20010904/DTD/svg10.dtd">
<svg version="1.0" xmlns="http://www.w3.org/2000/svg"
 width="1080.000000pt" height="1080.000000pt" viewBox="0 0 1080.000000 1080.000000"
 preserveAspectRatio="xMidYMid meet">

<g transform="translate(0.000000,1080.000000) scale(0.100000,-0.100000)"
fill="#000000" stroke="none">
<path d="M5208 6584 c-69 -21 -165 -98 -213 -171 -64 -95 -87 -176 -93 -318
-7 -192 24 -295 142 -477 174 -270 409 -783 478 -1046 26 -96 31 -137 32 -232
1 -100 -2 -122 -22 -166 -33 -73 -82 -118 -128 -117 -73 2 -125 25 -185 81
-74 68 -123 164 -145 282 -22 116 -30 130 -99 167 l-60 33 -22 -27 c-37 -46
-56 -125 -51 -219 4 -73 10 -94 46 -167 32 -65 57 -99 110 -148 127 -121 245
-155 491 -145 l154 6 74 46 c89 55 173 152 204 233 21 58 38 203 39 339 0 67
-4 92 -23 130 -13 26 -46 112 -72 191 -33 95 -66 172 -98 225 -27 45 -72 122
-100 171 -27 50 -97 164 -155 255 -159 248 -218 376 -242 526 -12 69 1 183 31
280 16 52 26 67 51 80 38 20 97 7 176 -38 60 -34 89 -70 121 -148 53 -127 99
-178 148 -159 37 14 50 56 56 185 l7 120 -33 31 c-93 88 -235 169 -343 197
-76 20 -213 20 -276 0z"/>
</g>
</svg>
